<svg data-v-fde0c5aa="" xmlns="http://www.w3.org/2000/svg" viewBox="0 0 300 300" class="iconLeftSlogan"><!----><defs data-v-fde0c5aa=""><!----></defs><rect data-v-fde0c5aa="" fill="#EAE5FE" x="0" y="0" width="300px" height="300px" class="logo-background-square"></rect><defs data-v-fde0c5aa=""><!----></defs><g data-v-fde0c5aa="" id="7491663a-11f7-4639-8afd-eb8b8c241a91" fill="#150355" transform="matrix(2.5131837250062588,0,0,2.5131837250062588,190.15862198118765,117.90911575225502)"><path d="M7.07 3.91L7.07 3.91L7.07 3.91Q8.20 5.95 8.20 8.29L8.20 8.29L8.20 8.29Q8.20 10.63 6.92 12.82L6.92 12.82L6.92 12.82Q6.47 13.59 5.66 13.59L5.66 13.59L5.66 13.59Q4.77 13.59 4.44 12.57L4.44 12.57L4.44 12.57Q4.28 12.11 4.19 11.56L4.19 11.56L4.19 11.56Q4.10 11.00 4.07 10.86L4.07 10.86L4.07 10.86Q3.96 11.09 3.68 11.79L3.68 11.79L3.68 11.79Q3.39 12.50 3.19 12.87L3.19 12.87L3.19 12.87Q2.90 13.45 2.35 13.45L2.35 13.45L2.35 13.45Q1.95 13.45 1.62 13.15L1.62 13.15L1.62 13.15Q1.36 12.87 1.29 12.05L1.29 12.05L1.29 12.05Q1.27 11.79 1.25 11.56L1.25 11.56L1.25 11.56Q1.23 11.34 1.23 11.14L1.23 11.14L1.23 11.14Q1.23 10.95 1.27 10.67L1.27 10.67L1.27 10.67Q1.32 10.39 1.36 10.14L1.36 10.14L1.36 10.14Q1.41 9.88 1.53 9.53L1.53 9.53L1.53 9.53Q1.64 9.18 1.72 8.94L1.72 8.94L1.72 8.94Q1.81 8.69 1.97 8.30L1.97 8.30L1.97 8.30Q2.13 7.91 2.21 7.71L2.21 7.71L2.21 7.71Q2.30 7.50 2.48 7.10L2.48 7.10L2.48 7.10Q2.67 6.69 2.74 6.54L2.74 6.54L2.74 6.54Q2.93 6.10 3.21 5.54L3.21 5.54L3.21 5.54Q2.30 6.51 1.26 6.87L1.26 6.87L1.26 6.87Q0.97 6.97 0.67 6.97L0.67 6.97L0.67 6.97Q0.36 6.97 0.18 6.73L0.18 6.73L0.18 6.73Q0 6.50 0 6.06L0 6.06L0 6.06Q0 5.63 0.54 5.12L0.54 5.12L0.54 5.12Q1.08 4.62 1.75 4.33L1.75 4.33L1.75 4.33Q2.42 4.03 2.96 4.03L2.96 4.03L2.96 4.03Q3.50 4.03 3.97 4.38L3.97 4.38L3.97 4.38Q4.44 4.73 4.44 5.31L4.44 5.31L4.44 5.31Q4.44 5.52 4.28 5.95L4.28 5.95L4.28 5.95Q4.12 6.38 3.65 7.52L3.65 7.52L3.65 7.52Q2.65 10.02 2.31 11.47L2.31 11.47L2.31 11.47Q2.28 11.58 2.28 11.68L2.28 11.68L2.28 11.68Q2.28 11.79 2.38 11.79L2.38 11.79L2.38 11.79Q2.80 11.79 4.06 7.99L4.06 7.99L4.06 7.99Q3.96 7.87 3.96 7.74L3.96 7.74L3.96 7.74Q3.96 7.56 4.30 7.56L4.30 7.56L4.30 7.56Q4.98 7.56 5.22 7.59L5.22 7.59L5.22 7.59Q5.46 7.62 5.46 7.74L5.46 7.74L5.46 7.74Q5.46 7.87 5.36 7.94L5.36 7.94L5.36 7.94Q5.21 9.58 5.21 10.14L5.21 10.14L5.21 10.14Q5.21 10.70 5.32 11.58L5.32 11.58L5.32 11.58Q5.43 12.46 5.67 12.46L5.67 12.46L5.67 12.46Q5.88 12.46 6.09 11.94L6.09 11.94L6.09 11.94Q7.03 9.88 7.03 7.90L7.03 7.90L7.03 7.90Q7.03 5.92 5.99 4.24L5.99 4.24L5.99 4.24Q5.84 4.02 5.84 3.81L5.84 3.81L5.84 3.81Q5.84 3.47 6.33 3.47L6.33 3.47L6.33 3.47Q6.82 3.47 7.07 3.91ZM2.31 4.70L2.31 4.70L2.31 4.70Q1.37 4.86 0.91 5.32L0.91 5.32L0.91 5.32Q0.76 5.47 0.76 5.60L0.76 5.60L0.76 5.60Q0.76 5.73 0.92 5.73L0.92 5.73L0.92 5.73Q1.39 5.73 2.31 4.70ZM11.59 11.89L11.59 11.89L11.59 11.89Q10.44 13.94 9.84 13.94L9.84 13.94L9.84 13.94Q9.41 13.94 9.06 13.41L9.06 13.41L9.06 13.41Q8.96 13.27 8.85 12.97L8.85 12.97L8.85 12.97Q8.74 12.67 8.58 12.42L8.58 12.42L8.58 12.42Q8.41 12.17 8.41 11.74L8.41 11.74L8.41 11.74Q8.41 11.31 8.58 10.98L8.58 10.98L8.58 10.98Q9.73 8.71 11.00 7.87L11.00 7.87L11.00 7.87Q11.17 7.74 11.40 7.74L11.40 7.74L11.40 7.74Q11.62 7.74 11.96 7.99L11.96 7.99L11.96 7.99Q12.15 8.19 12.19 8.33L12.19 8.33L12.19 8.33Q12.26 8.64 12.26 8.71L12.26 8.71L12.26 8.71Q12.75 8.88 12.75 9.32L12.75 9.32L12.75 9.32Q12.75 9.63 12.59 10.72L12.59 10.72L12.59 10.72Q12.42 11.80 12.39 12.33L12.39 12.33L12.39 12.33Q12.39 12.63 12.59 12.63L12.59 12.63L12.59 12.63Q12.81 12.63 13.39 11.84L13.39 11.84L13.39 11.84Q13.97 11.06 14.06 11.06L14.06 11.06L14.06 11.06Q14.20 11.06 14.20 11.52L14.20 11.52L14.17 12.21L14.17 12.21Q14.17 12.60 13.82 13.28L13.82 13.28L13.82 13.28Q13.47 13.96 12.92 13.96L12.92 13.96L12.92 13.96Q12.59 13.96 12.39 13.73L12.39 13.73L12.39 13.73Q12.32 13.66 12.18 13.45L12.18 13.45L12.18 13.45Q11.75 12.82 11.59 11.89ZM11.72 8.65L11.72 8.65L11.72 8.65Q9.95 10.26 9.48 12.33L9.48 12.33L9.48 12.33Q10.89 11.12 11.72 8.65ZM18.89 11.77L18.89 11.77L18.89 11.77Q18.89 12.88 18.48 13.47L18.48 13.47L18.48 13.47Q18.17 13.86 17.95 13.86L17.95 13.86L17.95 13.86Q17.72 13.86 17.50 13.64L17.50 13.64L17.50 13.64Q16.72 12.73 16.72 11.45L16.72 11.45L16.72 11.45Q16.72 11.03 16.81 10.58L16.81 10.58L16.81 10.58Q16.98 9.81 16.98 9.59L16.98 9.59L16.98 9.59Q16.98 9.37 16.95 9.37L16.95 9.37L16.95 9.37Q16.87 9.37 15.85 13.22L15.85 13.22L15.85 13.22Q15.72 13.61 15.58 13.61L15.58 13.61L15.58 13.61Q15.20 13.61 14.69 12.31L14.69 12.31L14.69 12.31Q14.41 11.69 14.41 10.82L14.41 10.82L14.41 10.82Q14.41 9.84 14.53 9.17L14.53 9.17L14.53 9.17Q14.64 8.50 14.67 8.34L14.67 8.34L14.67 8.34Q14.70 8.18 14.78 7.82L14.78 7.82L14.78 7.82Q14.85 7.46 14.88 7.35L14.88 7.35L14.88 7.35Q15.05 6.65 15.11 6.36L15.11 6.36L15.11 6.36Q14.76 6.36 14.76 6.15L14.76 6.15L14.76 6.15Q14.76 6.05 14.84 5.94L14.84 5.94L14.84 5.94Q15.61 4.72 15.93 3.78L15.93 3.78L15.93 3.78Q15.99 3.54 16.16 3.54L16.16 3.54L16.16 3.54Q16.38 3.54 16.49 3.98L16.49 3.98L16.49 3.98Q16.60 4.41 16.60 4.73L16.60 4.73L16.60 4.73Q16.60 5.54 16.07 6.03L16.07 6.03L16.07 6.03Q15.44 9.94 15.44 10.14L15.44 10.14L15.44 10.14Q15.44 10.33 15.50 10.33L15.50 10.33L15.50 10.33Q15.55 10.33 15.70 10.07L15.70 10.07L15.70 10.07Q15.85 9.81 16.17 9.08L16.17 9.08L16.17 9.08Q16.49 8.34 16.70 7.99L16.70 7.99L16.70 7.99Q17.01 7.48 17.49 7.48L17.49 7.48L17.49 7.48Q18.24 7.48 18.24 8.89L18.24 8.89L18.24 8.89Q18.24 10.04 17.71 11.79L17.71 11.79L17.71 11.79Q17.70 11.84 17.70 11.90L17.70 11.90L17.70 11.90Q17.70 12.05 17.84 12.05L17.84 12.05L17.84 12.05Q17.99 12.05 18.36 11.65L18.36 11.65L18.36 11.65Q18.73 11.24 18.81 11.24L18.81 11.24L18.81 11.24Q18.89 11.24 18.89 11.77ZM21.85 4.10L21.85 4.10L21.85 4.10Q21.85 4.56 21.46 5.38L21.46 5.38L21.46 5.38Q21.07 6.20 20.72 6.57L20.72 6.57L20.72 6.57Q20.66 6.65 20.55 6.65L20.55 6.65L20.55 6.65Q20.20 6.65 20.20 6.09L20.20 6.09L20.20 6.09Q20.20 5.53 20.69 4.52L20.69 4.52L20.69 4.52Q20.79 4.31 20.82 4.09L20.82 4.09L20.82 4.09Q20.85 3.86 20.85 3.83L20.85 3.83L20.85 3.83Q20.86 3.79 20.87 3.77L20.87 3.77L20.87 3.77Q20.87 3.75 20.88 3.72L20.88 3.72L20.88 3.72Q20.89 3.68 20.90 3.66L20.90 3.66L20.90 3.66Q20.90 3.64 20.92 3.62L20.92 3.62L20.92 3.62Q20.93 3.60 20.94 3.58L20.94 3.58L20.94 3.58Q20.99 3.56 21.17 3.56L21.17 3.56L21.17 3.56Q21.35 3.56 21.60 3.71L21.60 3.71L21.60 3.71Q21.85 3.86 21.85 4.10ZM21.99 10.32L21.99 10.32L21.99 10.32Q22.15 10.08 22.21 10.08L22.21 10.08L22.21 10.08Q22.27 10.08 22.31 10.43L22.31 10.43L22.31 10.43Q22.34 10.78 22.34 11.36L22.34 11.36L22.34 11.36Q22.34 11.94 22.07 12.61L22.07 12.61L22.07 12.61Q21.80 13.27 21.28 13.68L21.28 13.68L21.28 13.68Q20.99 13.90 20.74 13.90L20.74 13.90L20.74 13.90Q20.50 13.90 20.34 13.80L20.34 13.80L20.34 13.80Q20.17 13.69 20.05 13.45L20.05 13.45L20.05 13.45Q19.84 13.12 19.64 12.59L19.64 12.59L19.64 12.59Q19.43 12.05 19.43 11.44L19.43 11.44L19.43 11.44Q19.43 10.82 19.53 10.19L19.53 10.19L19.53 10.19Q19.63 9.56 19.63 9.34L19.63 9.34L19.63 9.34Q19.63 9.13 19.40 8.79L19.40 8.79L19.40 8.79Q19.18 8.44 19.18 8.37L19.18 8.37L19.18 8.37Q19.18 8.30 19.23 8.22L19.23 8.22L19.23 8.22Q19.28 8.15 19.36 8.07L19.36 8.07L19.36 8.07Q19.43 7.99 19.51 7.94L19.51 7.94L19.51 7.94Q19.59 7.88 19.68 7.80L19.68 7.80L19.68 7.80Q20.01 7.53 20.27 7.53L20.27 7.53L20.27 7.53Q20.54 7.53 20.74 7.71L20.74 7.71L20.74 7.71Q20.94 7.90 20.94 8.34L20.94 8.34L20.94 8.34Q20.93 8.79 20.72 10.04L20.72 10.04L20.72 10.04Q20.45 11.63 20.45 11.87L20.45 11.87L20.45 11.87Q20.45 12.11 20.58 12.11L20.58 12.11L20.58 12.11Q20.86 12.11 21.99 10.32ZM27.79 11.14L27.69 11.75L27.73 12.47L27.73 12.47Q27.73 13.24 27.33 13.24L27.33 13.24L27.33 13.24Q27.01 13.24 26.77 12.91L26.77 12.91L26.77 12.91Q26.53 12.57 26.40 12.30L26.40 12.30L26.40 12.30Q26.28 12.03 26.15 11.78L26.15 11.78L26.15 11.78Q26.03 11.54 25.93 11.20L25.93 11.20L25.93 11.20Q25.91 11.24 25.84 11.49L25.84 11.49L25.73 11.87L25.73 11.87Q25.56 12.49 25.47 12.69L25.47 12.69L25.47 12.69Q25.38 12.89 25.28 13.14L25.28 13.14L25.28 13.14Q25.17 13.38 25.06 13.53L25.06 13.53L25.06 13.53Q24.95 13.68 24.82 13.82L24.82 13.82L24.82 13.82Q24.57 14.11 24.21 14.11L24.21 14.11L24.21 14.11Q23.86 14.11 23.52 13.71L23.52 13.71L23.52 13.71Q22.95 13.03 22.68 12.03L22.68 12.03L22.68 12.03Q22.55 11.61 22.55 11.06L22.55 11.06L22.55 11.06Q22.55 10.51 22.89 9.85L22.89 9.85L22.89 9.85Q23.23 9.18 23.90 8.39L23.90 8.39L23.90 8.39Q24.57 7.59 25.14 7.59L25.14 7.59L25.14 7.59Q25.45 7.59 25.84 7.88L25.84 7.88L25.84 7.88Q25.93 7.13 26.12 5.74L26.12 5.74L26.12 5.74Q26.32 4.35 26.36 3.93L26.36 3.93L26.36 3.93Q26.40 3.50 26.66 3.50L26.66 3.50L26.66 3.50Q26.92 3.50 27.04 3.77L27.04 3.77L27.04 3.77Q27.16 4.05 27.16 4.31L27.16 4.31L27.16 4.31Q27.16 4.58 27.12 4.80L27.12 4.80L27.12 4.80Q26.73 8.81 26.73 11.31L26.73 11.31L26.73 11.31Q26.73 11.69 26.94 11.69L26.94 11.69L26.94 11.69Q27.15 11.69 27.39 11.36L27.39 11.36L27.39 11.36Q27.64 11.03 27.71 11.03L27.71 11.03L27.71 11.03Q27.79 11.03 27.79 11.14L27.79 11.14ZM25.48 9.07L25.48 9.07L25.48 9.07Q25.48 8.90 25.32 8.90L25.32 8.90L25.32 8.90Q25.16 8.90 24.93 9.04L24.93 9.04L24.93 9.04Q24.21 9.45 23.74 10.30L23.74 10.30L23.74 10.30Q23.27 11.16 23.27 12.01L23.27 12.01L23.27 12.01Q23.27 12.53 23.59 12.53L23.59 12.53L23.59 12.53Q23.72 12.53 23.87 12.38L23.87 12.38L23.87 12.38Q24.65 11.55 25.42 9.32L25.42 9.32L25.42 9.32Q25.48 9.18 25.48 9.07Z"></path></g><defs data-v-fde0c5aa=""><linearGradient data-v-fde0c5aa="" gradientTransform="rotate(25)" id="712750cb-7073-41bf-b9a0-97b6d58b1828" x1="0%" y1="0%" x2="100%" y2="0%"><stop data-v-fde0c5aa="" offset="0%" stop-color="#410FF8" stop-opacity="1"></stop><stop data-v-fde0c5aa="" offset="100%" stop-color="#410FF8" stop-opacity="1"></stop></linearGradient></defs><g data-v-fde0c5aa="" id="1e90c32c-f110-4908-8747-a33229274899" stroke="url(#712750cb-7073-41bf-b9a0-97b6d58b1828)" fill="none" transform="matrix(0.46972130815475227,0,0,0.46972130815475227,130.18649116571243,135.2037787931253)"><switch><g><path d="M-192 0H-7v99h-185zM0-36h100v30H0z"></path><text transform="translate(66 -19.5)" font-family="'Helvetica'" font-size="2.4">http://thenounproject.com</text><text transform="translate(7.166 -24.5)"><tspan x="0" y="0" font-family="'Helvetica-Bold'" font-size="6.158">The Noun Project</tspan><tspan x="1.12" y="4.8" font-family="'Helvetica-Bold'" font-size="4">Icon Template</tspan></text><text transform="translate(-178.5 10.5)" font-family="'Helvetica-Bold'" font-size="6.158">Reminders</text><path stroke-miterlimit="10" d="M8-14.5h10M-179 16.5h17"></path><path d="M-170.802 31.318h8.721v8.642h-8.721z"></path><path d="M-164.455 42.312h4.747v-4.703h-4.747v4.703zm5.189.437h-5.63V37.17h5.63v5.579zm-6.955 1.313h8.279v-8.203h-8.279v8.203zm8.721.438h-9.163v-9.079h9.163V44.5z"></path><path d="M-166.149 44.133l-.143-.142 8.279-8.204.142.142z"></path><path d="M-179 58h35v32.5h-35z"></path><text transform="translate(-179 60.154)"><tspan x="0" y="0" font-family="'Helvetica-Bold'" font-size="3">Strokes</tspan><tspan x="0" y="5" font-family="'Helvetica'" font-size="2.4">Try to keep strokes at 4px</tspan><tspan x="0" y="10" font-family="'Helvetica'" font-size="2.4">Minimum stroke weight is 2px</tspan><tspan x="0" y="14.5" font-family="'Helvetica'" font-size="2.4">For thicker strokes use even </tspan><tspan x="0" y="17.5" font-family="'Helvetica'" font-size="2.4">numbers: 6px, 8px etc.</tspan><tspan x="0" y="22" font-family="'Helvetica-Bold'" font-size="2.4">Remember to expand strokes </tspan><tspan x="0" y="25" font-family="'Helvetica-Bold'" font-size="2.4">before saving as an SVG</tspan></text><path d="M-136.5 58h35v32.5h-35z"></path><text transform="translate(-136.5 60.154)"><tspan x="0" y="0" font-family="'Helvetica-Bold'" font-size="3">Size</tspan><tspan x="0" y="5" font-family="'Helvetica'" font-size="2.4">Cannot be wider or taller than </tspan><tspan x="0" y="8.5" font-family="'Helvetica'" font-size="2.4">100px (artboard size)</tspan><tspan x="0" y="13.5" font-family="'Helvetica'" font-size="2.4">Scale your icon to fill as much of </tspan><tspan x="0" y="16.5" font-family="'Helvetica'" font-size="2.4">the artboard as possible</tspan></text><path d="M-94 58h35v32.5h-35z"></path><text transform="translate(-94 60.154)"><tspan x="0" y="0" font-family="'Helvetica-Bold'" font-size="3">Ungroup</tspan><tspan x="0" y="5" font-family="'Helvetica'" font-size="2.4">If your design has more than one </tspan><tspan x="0" y="8" font-family="'Helvetica'" font-size="2.4">shape, make sure to ungroup</tspan></text><path d="M-50 58h35v32.5h-35z"></path><text transform="translate(-50 60.154)"><tspan x="0" y="0" font-family="'Helvetica-Bold'" font-size="3">Save as</tspan><tspan x="0" y="5" font-family="'Helvetica'" font-size="2.4">Save as .SVG and make sure “Use </tspan><tspan x="0" y="8" font-family="'Helvetica'" font-size="2.4">Artboards” is checked</tspan></text><text transform="matrix(1.0074 0 0 1 -125.542 30.593)" font-family="'Helvetica'" font-size="2.573">100px</text><text transform="matrix(1.0074 0 0 1 -41 39)" font-family="'Helvetica-Bold'" font-size="5.146">.SVG</text><path d="M-126.514 34.815h10.261V45h-10.261zM-126.477 31.766h.522v2.337h-.522zM-116.813 31.766h.523v2.337h-.523z"></path><path d="M-127 32.337h11.233v.572H-127zM-83.805 33.844H-73.5V44h-10.305zM-76.809 28.707h3.308v3.261h-3.308z"></path><path stroke="#FFF" stroke-miterlimit="10" d="M-178.5 22.5h30v30h-30zM-136.5 22.5h30v30h-30zM-93.5 22.5h30v30h-30zM-49.5 22.5h30v30h-30z"></path><g><path d="M97.768 84.262H55.52v10.724H100V84.262zM36.42 6.652L1.221 24.567 0 25.187v7.556l1.224.62L36.422 51.2l3.244 1.643V42.704l-1.226-.62-26.044-13.159 26.044-13.16 1.226-.619V5zM77.76 5h-7.947l-.598 1.304-39.089 85.521-1.445 3.161H40.11l.595-1.306L79.791 8.161 81.234 5z"></path></g></g></switch></g><defs data-v-fde0c5aa=""><!----></defs><g data-v-fde0c5aa="" id="17c70782-1121-402a-a788-49f4a0c80a0c" fill="#150355" transform="matrix(1.110708919091082,0,0,1.110708919091082,189.4699824460549,159.67147603423754)"><path d="M0.62 8.90L0.62 8.90L0.62 8.90Q0.62 7.38 1.20 6.16L1.20 6.16L1.20 6.16Q1.79 4.94 3.02 4.19L3.02 4.19L3.02 4.19Q4.24 3.44 5.92 3.44L5.92 3.44L5.92 3.44Q6.78 3.44 7.64 3.70L7.64 3.70L7.64 3.70Q8.51 3.95 9.03 4.20L9.03 4.20L9.55 4.47L9.55 4.47Q9.59 4.47 9.69 4.40L9.69 4.40L9.69 4.40Q9.79 4.33 9.84 4.33L9.84 4.33L9.84 4.33Q9.91 4.33 9.98 4.38L9.98 4.38L9.98 4.38Q10.05 4.44 10.05 4.55L10.05 4.55L10.05 4.55Q10.07 4.96 10.12 5.41L10.12 5.41L10.12 5.41Q10.16 5.87 10.21 6.16L10.21 6.16L10.21 6.16Q10.25 6.45 10.25 6.51L10.25 6.51L10.25 6.51Q10.25 6.76 10.08 6.76L10.08 6.76L10.08 6.76Q9.95 6.76 9.84 6.57L9.84 6.57L9.84 6.57Q8.48 4.02 5.92 4.02L5.92 4.02L5.92 4.02Q4.17 4.02 3.05 5.14L3.05 5.14L3.05 5.14Q1.93 6.26 1.93 8.06L1.93 8.06L1.93 8.06Q1.93 9.06 2.19 9.93L2.19 9.93L2.19 9.93Q2.45 10.79 2.98 11.51L2.98 11.51L2.98 11.51Q3.50 12.24 4.42 12.66L4.42 12.66L4.42 12.66Q5.35 13.08 6.58 13.08L6.58 13.08L6.58 13.08Q8.60 13.08 9.97 10.98L9.97 10.98L9.97 10.98Q10.02 10.88 10.18 10.88L10.18 10.88L10.18 10.88Q10.30 10.88 10.30 11.07L10.30 11.07L10.30 11.07Q10.30 11.23 10.26 11.49L10.26 11.49L10.26 11.49Q10.21 11.75 10.14 12.06L10.14 12.06L10.14 12.06Q10.07 12.38 10.05 12.45L10.05 12.45L10.05 12.45Q10.02 12.60 9.83 12.70L9.83 12.70L9.83 12.70Q9.07 13.06 8.64 13.24L8.64 13.24L8.64 13.24Q8.22 13.43 7.56 13.57L7.56 13.57L7.56 13.57Q6.90 13.72 6.22 13.72L6.22 13.72L6.22 13.72Q5.00 13.72 4.02 13.43L4.02 13.43L4.02 13.43Q3.04 13.13 2.42 12.66L2.42 12.66L2.42 12.66Q1.79 12.18 1.37 11.54L1.37 11.54L1.37 11.54Q0.95 10.91 0.78 10.25L0.78 10.25L0.78 10.25Q0.62 9.60 0.62 8.90ZM18.91 8.69L18.91 8.69L18.91 8.69Q18.91 6.34 20.33 4.84L20.33 4.84L20.33 4.84Q21.74 3.33 24.33 3.33L24.33 3.33L24.33 3.33Q25.54 3.33 26.50 3.68L26.50 3.68L26.50 3.68Q27.47 4.03 28.03 4.54L28.03 4.54L28.03 4.54Q28.59 5.05 28.97 5.71L28.97 5.71L28.97 5.71Q29.34 6.37 29.48 6.92L29.48 6.92L29.48 6.92Q29.62 7.48 29.62 7.95L29.62 7.95L29.62 7.95Q29.62 9.86 28.88 11.16L28.88 11.16L28.88 11.16Q28.14 12.47 26.93 13.07L26.93 13.07L26.93 13.07Q25.72 13.66 24.14 13.66L24.14 13.66L24.14 13.66Q22.47 13.66 21.26 12.94L21.26 12.94L21.26 12.94Q20.05 12.21 19.48 11.10L19.48 11.10L19.48 11.10Q18.91 10.00 18.91 8.69ZM20.15 7.98L20.15 7.98L20.15 7.98Q20.15 8.54 20.30 9.19L20.30 9.19L20.30 9.19Q20.45 9.84 20.80 10.54L20.80 10.54L20.80 10.54Q21.15 11.23 21.65 11.78L21.65 11.78L21.65 11.78Q22.15 12.33 22.91 12.69L22.91 12.69L22.91 12.69Q23.67 13.05 24.58 13.05L24.58 13.05L24.58 13.05Q25.06 13.05 25.59 12.90L25.59 12.90L25.59 12.90Q26.11 12.75 26.63 12.45L26.63 12.45L26.63 12.45Q27.15 12.14 27.55 11.70L27.55 11.70L27.55 11.70Q27.96 11.26 28.22 10.62L28.22 10.62L28.22 10.62Q28.48 9.98 28.48 9.24L28.48 9.24L28.48 9.24Q28.48 6.71 27.15 5.30L27.15 5.30L27.15 5.30Q25.82 3.89 23.86 3.89L23.86 3.89L23.86 3.89Q22.32 3.89 21.23 4.93L21.23 4.93L21.23 4.93Q20.15 5.96 20.15 7.98ZM37.52 3.64L37.52 3.64L37.52 3.64Q37.52 3.51 37.64 3.49L37.64 3.49L37.64 3.49Q37.76 3.47 38.23 3.47L38.23 3.47L39.45 3.47L39.45 3.47Q39.80 3.47 40.74 3.44L40.74 3.44L40.74 3.44Q41.68 3.42 42.18 3.42L42.18 3.42L42.18 3.42Q43.15 3.42 44.11 3.71L44.11 3.71L44.11 3.71Q45.08 4.00 45.89 4.56L45.89 4.56L45.89 4.56Q46.70 5.11 47.21 6.00L47.21 6.00L47.21 6.00Q47.71 6.89 47.71 7.98L47.71 7.98L47.71 7.98Q47.71 8.96 47.58 9.68L47.58 9.68L47.58 9.68Q47.45 10.40 47.14 10.93L47.14 10.93L47.14 10.93Q46.83 11.45 46.52 11.78L46.52 11.78L46.52 11.78Q46.21 12.11 45.68 12.56L45.68 12.56L45.68 12.56Q45.26 12.89 44.46 13.19L44.46 13.19L44.46 13.19Q43.67 13.48 42.83 13.48L42.83 13.48L42.83 13.48Q42.74 13.48 41.40 13.45L41.40 13.45L41.40 13.45Q40.05 13.41 39.47 13.41L39.47 13.41L39.47 13.41Q38.98 13.41 38.56 13.45L38.56 13.45L38.56 13.45Q38.14 13.48 38.07 13.48L38.07 13.48L38.07 13.48Q37.73 13.48 37.73 13.30L37.73 13.30L37.73 13.30Q37.73 13.19 37.78 13.14L37.78 13.14L37.78 13.14Q37.83 13.09 37.99 13.05L37.99 13.05L37.99 13.05Q38.15 13.01 38.22 12.98L38.22 12.98L38.22 12.98Q38.44 12.88 38.63 12.61L38.63 12.61L38.63 12.61Q38.82 12.33 38.82 12.07L38.82 12.07L38.82 12.07Q38.82 11.28 38.83 10.07L38.83 10.07L38.83 10.07Q38.84 8.85 38.84 8.27L38.84 8.27L38.84 8.27Q38.84 7.77 38.83 6.70L38.83 6.70L38.83 6.70Q38.82 5.63 38.82 4.72L38.82 4.72L38.82 4.72Q38.82 4.48 38.59 4.23L38.59 4.23L38.59 4.23Q38.36 3.99 38.08 3.98L38.08 3.98L38.08 3.98Q37.88 3.96 37.79 3.95L37.79 3.95L37.79 3.95Q37.70 3.93 37.61 3.86L37.61 3.86L37.61 3.86Q37.52 3.78 37.52 3.64ZM40.00 11.47L40.00 11.47L40.00 11.47Q40.00 11.73 40.01 11.90L40.01 11.90L40.01 11.90Q40.01 12.07 40.06 12.21L40.06 12.21L40.06 12.21Q40.11 12.35 40.14 12.40L40.14 12.40L40.14 12.40Q40.17 12.46 40.31 12.53L40.31 12.53L40.31 12.53Q40.45 12.60 40.52 12.62L40.52 12.62L40.52 12.62Q40.60 12.64 40.85 12.71L40.85 12.71L40.85 12.71Q41.10 12.78 41.27 12.82L41.27 12.82L41.27 12.82Q41.76 12.96 42.29 12.96L42.29 12.96L42.57 12.96L42.57 12.96Q43.53 12.96 44.20 12.69L44.20 12.69L44.20 12.69Q44.87 12.42 45.49 11.83L45.49 11.83L45.49 11.83Q46.52 10.84 46.52 8.61L46.52 8.61L46.52 8.61Q46.52 7.49 46.08 6.58L46.08 6.58L46.08 6.58Q45.64 5.67 44.93 5.13L44.93 5.13L44.93 5.13Q44.21 4.59 43.39 4.30L43.39 4.30L43.39 4.30Q42.56 4.02 41.72 4.02L41.72 4.02L41.72 4.02Q41.34 4.02 41.17 4.02L41.17 4.02L41.17 4.02Q40.99 4.02 40.76 4.05L40.76 4.05L40.76 4.05Q40.53 4.09 40.45 4.11L40.45 4.11L40.45 4.11Q40.38 4.13 40.26 4.25L40.26 4.25L40.26 4.25Q40.15 4.37 40.13 4.45L40.13 4.45L40.13 4.45Q40.11 4.54 40.08 4.78L40.08 4.78L40.08 4.78Q40.04 5.03 40.04 5.21L40.04 5.21L40.04 5.21Q40.04 5.39 40.04 5.80L40.04 5.80L40.04 5.80Q40.04 6.10 40.03 7.24L40.03 7.24L40.03 7.24Q40.01 8.39 40.01 8.48L40.01 8.48L40.01 8.48Q40.01 9.32 40.01 10.30L40.01 10.30L40.01 10.30Q40.00 11.28 40.00 11.47ZM55.61 3.65L55.61 3.65L55.61 3.65Q55.61 3.46 56 3.46L56 3.46L56 3.46Q56.06 3.46 56.18 3.47L56.18 3.47L56.18 3.47Q56.31 3.49 56.38 3.49L56.38 3.49L56.38 3.49Q56.42 3.49 57.69 3.52L57.69 3.52L57.69 3.52Q58.97 3.56 59.79 3.56L59.79 3.56L59.79 3.56Q60.09 3.56 61.24 3.53L61.24 3.53L61.24 3.53Q62.40 3.50 62.59 3.50L62.59 3.50L62.59 3.50Q62.86 3.50 62.86 3.82L62.86 3.82L62.86 3.82Q62.86 3.91 62.78 4.38L62.78 4.38L62.78 4.38Q62.69 4.84 62.69 5.25L62.69 5.25L62.69 5.25Q62.69 5.38 62.62 5.47L62.62 5.47L62.62 5.47Q62.55 5.56 62.47 5.56L62.47 5.56L62.47 5.56Q62.26 5.56 62.26 5.26L62.26 5.26L62.26 5.26Q62.26 4.89 62.02 4.58L62.02 4.58L62.02 4.58Q61.78 4.27 61.43 4.26L61.43 4.26L61.43 4.26Q60.17 4.16 59.50 4.16L59.50 4.16L59.14 4.16L59.14 4.16Q58.41 4.16 58.29 4.26L58.29 4.26L58.29 4.26Q58.17 4.37 58.14 5.01L58.14 5.01L58.14 5.01Q58.09 6.02 58.09 7.35L58.09 7.35L58.09 7.35Q58.09 8.05 58.35 8.06L58.35 8.06L58.70 8.06L59.29 8.06L59.72 8.06L59.72 8.06Q60.56 8.06 60.84 8.01L60.84 8.01L60.84 8.01Q61.12 7.95 61.35 7.80L61.35 7.80L61.35 7.80Q61.61 7.62 61.67 7.28L61.67 7.28L61.67 7.28Q61.71 7.04 61.87 7.04L61.87 7.04L61.87 7.04Q61.99 7.04 62.02 7.08L62.02 7.08L62.02 7.08Q62.05 7.13 62.05 7.27L62.05 7.27L62.05 7.27Q62.05 7.36 61.99 7.91L61.99 7.91L61.99 7.91Q61.94 8.46 61.94 8.74L61.94 8.74L61.94 8.74Q61.94 9.00 61.96 9.24L61.96 9.24L61.96 9.24Q61.98 9.48 61.98 9.59L61.98 9.59L61.98 9.59Q61.98 9.94 61.88 9.94L61.88 9.94L61.88 9.94Q61.67 9.94 61.57 9.60L61.57 9.60L61.57 9.60Q61.38 9.02 61.22 8.92L61.22 8.92L61.22 8.92Q60.93 8.72 59.88 8.72L59.88 8.72L59.88 8.72Q59.46 8.72 59.20 8.72L59.20 8.72L59.20 8.72Q58.94 8.72 58.86 8.71L58.86 8.71L58.86 8.71Q58.79 8.71 58.74 8.71L58.74 8.71L58.74 8.71Q58.69 8.71 58.65 8.71L58.65 8.71L58.65 8.71Q58.07 8.71 58.07 8.97L58.07 8.97L58.07 8.97Q58.07 9.38 58.06 9.99L58.06 9.99L58.06 9.99Q58.04 10.60 58.04 10.99L58.04 10.99L58.04 11.55L58.04 11.55Q58.04 12.56 58.38 12.66L58.38 12.66L58.38 12.66Q58.73 12.77 58.98 12.77L58.98 12.77L58.98 12.77Q60.03 12.77 60.82 12.67L60.82 12.67L60.82 12.67Q61.61 12.57 62.01 12.42L62.01 12.42L62.01 12.42Q62.41 12.28 62.68 12.10L62.68 12.10L62.68 12.10Q62.94 11.93 63.02 11.78L63.02 11.78L63.02 11.78Q63.10 11.63 63.18 11.54L63.18 11.54L63.18 11.54Q63.25 11.44 63.34 11.44L63.34 11.44L63.34 11.44Q63.50 11.44 63.50 11.68L63.50 11.68L63.50 11.68Q63.50 12.28 62.90 12.89L62.90 12.89L62.90 12.89Q62.30 13.51 61.85 13.51L61.85 13.51L61.85 13.51Q60.84 13.51 59.58 13.44L59.58 13.44L59.58 13.44Q58.31 13.37 58.00 13.37L58.00 13.37L58.00 13.37Q57.61 13.37 57.02 13.43L57.02 13.43L57.02 13.43Q56.43 13.50 56.10 13.50L56.10 13.50L56.10 13.50Q55.80 13.50 55.80 13.36L55.80 13.36L55.80 13.36Q55.80 13.23 55.80 13.19L55.80 13.19L55.80 13.19Q55.80 13.15 55.85 13.12L55.85 13.12L55.85 13.12Q55.89 13.09 55.94 13.08L55.94 13.08L55.94 13.08Q55.99 13.08 56.12 13.03L56.12 13.03L56.12 13.03Q56.25 12.99 56.41 12.92L56.41 12.92L56.41 12.92Q56.74 12.75 56.85 12.26L56.85 12.26L56.85 12.26Q56.95 11.77 56.95 10.21L56.95 10.21L56.95 8.47L56.95 8.47Q56.95 8.09 56.97 7.29L56.97 7.29L56.97 7.29Q56.99 6.50 56.99 6.05L56.99 6.05L56.99 6.05Q56.99 5.67 56.97 4.77L56.97 4.77L56.97 4.77Q56.95 4.37 56.62 4.14L56.62 4.14L56.62 4.14Q56.28 3.92 55.83 3.91L55.83 3.91L55.83 3.91Q55.61 3.91 55.61 3.65Z"></path></g></svg>